<?xml version="1.0" encoding="UTF-8" standalone="no"?>
<!-- Created with Inkscape (http://www.inkscape.org/) -->

<svg
   xmlns:dc="http://purl.org/dc/elements/1.1/"
   xmlns:cc="http://creativecommons.org/ns#"
   xmlns:rdf="http://www.w3.org/1999/02/22-rdf-syntax-ns#"
   xmlns:svg="http://www.w3.org/2000/svg"
   xmlns="http://www.w3.org/2000/svg"
   xmlns:sodipodi="http://sodipodi.sourceforge.net/DTD/sodipodi-0.dtd"
   xmlns:inkscape="http://www.inkscape.org/namespaces/inkscape"
   width="210mm"
   height="297mm"
   viewBox="0 0 210 297"
   version="1.1"
   id="svg8"
   inkscape:version="0.92.3 (2405546, 2018-03-11)"
   sodipodi:docname="smoczekSzkic.svg">
  <defs
     id="defs2" />
  <sodipodi:namedview
     id="base"
     pagecolor="#ffffff"
     bordercolor="#666666"
     borderopacity="1.0"
     inkscape:pageopacity="0.0"
     inkscape:pageshadow="2"
     inkscape:zoom="1"
     inkscape:cx="530.82998"
     inkscape:cy="540.30794"
     inkscape:document-units="mm"
     inkscape:current-layer="layer1"
     showgrid="false"
     inkscape:object-paths="true"
     inkscape:snap-bbox="false"
     inkscape:snap-global="true"
     inkscape:snap-smooth-nodes="true"
     inkscape:snap-nodes="false"
     inkscape:object-nodes="false"
     inkscape:window-width="1853"
     inkscape:window-height="1025"
     inkscape:window-x="67"
     inkscape:window-y="27"
     inkscape:window-maximized="1" />
  <metadata
     id="metadata5">
    <rdf:RDF>
      <cc:Work
         rdf:about="">
        <dc:format>image/svg+xml</dc:format>
        <dc:type
           rdf:resource="http://purl.org/dc/dcmitype/StillImage" />
        <dc:title></dc:title>
      </cc:Work>
    </rdf:RDF>
  </metadata>
  <g
     inkscape:label="Layer 1"
     inkscape:groupmode="layer"
     id="layer1">
    <ellipse
       style="fill:none;stroke:#000000;stroke-width:0.26458332"
       id="path24"
       cx="86.897804"
       cy="147.18976"
       rx="10.616474"
       ry="11.009676" />
    <path
       style="fill:none;stroke:#000000;stroke-width:0.26458332px;stroke-linecap:butt;stroke-linejoin:miter;stroke-opacity:1"
       d="m 76.639945,150.1085 c -5.355865,-0.12057 -8.821128,-1.72279 -11.546882,-5.68508 -5.207071,-7.56927 -4.508499,-20.63375 2.931006,-21.61223 -5.894111,-13.9493 8.489775,-25.282588 25.019299,-27.90426 10.417162,-1.652219 21.686512,0.155568 29.269452,6.94912 0.10742,0.0962 0.2141,0.19347 0.32002,0.29172 m 6.12776,8.82208 c 0.13743,0.32657 0.26975,0.65848 0.39682,0.99578 m 2.07552,14.45894 c -1.51181,27.04116 -34.910061,25.93551 -34.910061,25.93551"
       id="path28"
       inkscape:connector-curvature="0"
       sodipodi:nodetypes="cscssccccc" />
    <path
       style="fill:none;stroke:#000000;stroke-width:0.26458332;stroke-linecap:butt;stroke-linejoin:miter;stroke-miterlimit:4;stroke-dasharray:none;stroke-opacity:1"
       d="m 76.703328,100.9607 c -4.566296,-13.439166 1.420039,-9.451891 2.562993,-14.929822 1.228524,-5.888048 -0.840579,-8.052787 -5.37751,-4.430512 -4.536929,3.622278 2.313591,-5.425328 1.84009,-10.329338 -0.47118,-4.87997 -24.754823,5.927959 -5.751587,35.709802"
       id="path30"
       inkscape:connector-curvature="0"
       sodipodi:nodetypes="csssc" />
    <path
       style="fill:none;stroke:#000000;stroke-width:0.76410961"
       d="M 436.92383 491.05664 A 41.795597 40.632268 0 0 0 438.29883 487.39258 A 41.795597 40.632268 0 0 0 439.33203 483.45703 A 41.795597 40.632268 0 0 0 439.95703 479.44141 A 41.795597 40.632268 0 0 0 440.16602 475.38477 A 41.795597 40.632268 0 0 0 440.06055 472.51172 A 41.795597 40.632268 0 0 0 439.55859 468.47852 A 41.795597 40.632268 0 0 0 438.64258 464.51562 A 41.795597 40.632268 0 0 0 437.32617 460.66211 A 41.795597 40.632268 0 0 0 435.61914 456.95508 A 41.795597 40.632268 0 0 0 433.54102 453.43164 A 41.795597 40.632268 0 0 0 431.10938 450.12695 A 41.795597 40.632268 0 0 0 428.35352 447.07617 A 41.795597 40.632268 0 0 0 425.29492 444.30859 A 41.795597 40.632268 0 0 0 421.9707 441.84961 A 41.795597 40.632268 0 0 0 418.4082 439.72656 A 41.795597 40.632268 0 0 0 414.64648 437.96094 A 41.795597 40.632268 0 0 0 410.72266 436.56836 A 41.795597 40.632268 0 0 0 406.67383 435.5625 A 41.795597 40.632268 0 0 0 402.54297 434.95508 A 41.795597 40.632268 0 0 0 398.37109 434.75391 A 41.795597 40.632268 0 0 0 395.41406 434.85547 A 41.795597 40.632268 0 0 0 391.26562 435.34375 A 41.795597 40.632268 0 0 0 387.18945 436.23438 A 41.795597 40.632268 0 0 0 383.22461 437.51367 A 41.795597 40.632268 0 0 0 379.41211 439.17383 A 41.795597 40.632268 0 0 0 375.78906 441.19531 A 41.795597 40.632268 0 0 0 372.39062 443.55664 A 41.795597 40.632268 0 0 0 369.25195 446.23828 A 41.795597 40.632268 0 0 0 366.4043 449.20898 A 41.795597 40.632268 0 0 0 363.875 452.44336 A 41.795597 40.632268 0 0 0 361.69141 455.9043 A 41.795597 40.632268 0 0 0 359.875 459.5625 A 41.795597 40.632268 0 0 0 359.38477 460.86523 A 43.099852 40.3503 0 0 0 358.7168 467.70117 A 43.099852 40.3503 0 0 0 401.81641 508.05078 A 43.099852 40.3503 0 0 0 436.92383 491.05664 z "
       id="path186"
       transform="scale(0.26458333)" />
    <path
       style="fill:none;stroke:#000000;stroke-width:0.76410961"
       d="M 401.81641 427.35156 A 43.099852 40.3503 0 0 0 359.38477 460.86523 A 41.795597 40.632268 0 0 1 359.875 459.5625 A 41.795597 40.632268 0 0 1 361.69141 455.9043 A 41.795597 40.632268 0 0 1 363.875 452.44336 A 41.795597 40.632268 0 0 1 366.4043 449.20898 A 41.795597 40.632268 0 0 1 369.25195 446.23828 A 41.795597 40.632268 0 0 1 372.39062 443.55664 A 41.795597 40.632268 0 0 1 375.78906 441.19531 A 41.795597 40.632268 0 0 1 379.41211 439.17383 A 41.795597 40.632268 0 0 1 383.22461 437.51367 A 41.795597 40.632268 0 0 1 387.18945 436.23438 A 41.795597 40.632268 0 0 1 391.26562 435.34375 A 41.795597 40.632268 0 0 1 395.41406 434.85547 A 41.795597 40.632268 0 0 1 398.37109 434.75391 A 41.795597 40.632268 0 0 1 402.54297 434.95508 A 41.795597 40.632268 0 0 1 406.67383 435.5625 A 41.795597 40.632268 0 0 1 410.72266 436.56836 A 41.795597 40.632268 0 0 1 414.64648 437.96094 A 41.795597 40.632268 0 0 1 418.4082 439.72656 A 41.795597 40.632268 0 0 1 421.9707 441.84961 A 41.795597 40.632268 0 0 1 425.29492 444.30859 A 41.795597 40.632268 0 0 1 428.35352 447.07617 A 41.795597 40.632268 0 0 1 431.10938 450.12695 A 41.795597 40.632268 0 0 1 433.54102 453.43164 A 41.795597 40.632268 0 0 1 435.61914 456.95508 A 41.795597 40.632268 0 0 1 437.32617 460.66211 A 41.795597 40.632268 0 0 1 438.64258 464.51562 A 41.795597 40.632268 0 0 1 439.55859 468.47852 A 41.795597 40.632268 0 0 1 440.06055 472.51172 A 41.795597 40.632268 0 0 1 440.16602 475.38477 A 41.795597 40.632268 0 0 1 439.95703 479.44141 A 41.795597 40.632268 0 0 1 439.33203 483.45703 A 41.795597 40.632268 0 0 1 438.29883 487.39258 A 41.795597 40.632268 0 0 1 436.92383 491.05664 A 43.099852 40.3503 0 0 0 444.91602 467.70117 A 43.099852 40.3503 0 0 0 401.81641 427.35156 z "
       id="path38"
       transform="scale(0.26458333)" />
    <path
       style="fill:none;stroke:#000000;stroke-width:0.61876565"
       d="M 329.0332 457.70703 A 31.636112 41.260154 0 0 0 327.67188 454.03125 A 31.636112 41.260154 0 0 0 326.01953 450.51562 A 31.636112 41.260154 0 0 0 324.10547 447.23242 A 31.636112 41.260154 0 0 0 321.94922 444.21484 A 31.636112 41.260154 0 0 0 319.57422 441.49219 A 31.636112 41.260154 0 0 0 317.00195 439.09375 A 31.636112 41.260154 0 0 0 314.25781 437.04102 A 31.636112 41.260154 0 0 0 311.37109 435.35547 A 31.636112 41.260154 0 0 0 308.37109 434.05664 A 31.636112 41.260154 0 0 0 305.28516 433.15234 A 31.636112 41.260154 0 0 0 302.14648 432.65625 A 31.636112 41.260154 0 0 0 299.9082 432.55273 A 31.636112 41.260154 0 0 0 296.75 432.75781 A 31.636112 41.260154 0 0 0 293.62305 433.375 A 31.636112 41.260154 0 0 0 290.55859 434.39453 A 31.636112 41.260154 0 0 0 287.58789 435.80859 A 31.636112 41.260154 0 0 0 284.74219 437.60352 A 31.636112 41.260154 0 0 0 282.04492 439.75781 A 31.636112 41.260154 0 0 0 279.52734 442.25391 A 31.636112 41.260154 0 0 0 277.21484 445.06641 A 31.636112 41.260154 0 0 0 275.12695 448.16406 A 31.636112 41.260154 0 0 0 273.28711 451.51953 A 31.636112 41.260154 0 0 0 271.71484 455.09766 A 31.636112 41.260154 0 0 0 270.42188 458.86133 A 31.636112 41.260154 0 0 0 269.42578 462.77539 A 31.636112 41.260154 0 0 0 269.31445 463.41992 A 30.13302 37.846073 0 0 0 269.2832 464.52734 A 30.13302 37.846073 0 0 0 299.41602 502.37305 A 30.13302 37.846073 0 0 0 329.54883 464.52734 A 30.13302 37.846073 0 0 0 329.0332 457.70703 z "
       id="path4785"
       transform="scale(0.26458333)" />
    <path
       style="fill:none;stroke:#000000;stroke-width:0.61876565"
       d="M 299.41602 426.67969 A 30.13302 37.846073 0 0 0 269.31445 463.41992 A 31.636112 41.260154 0 0 1 269.42578 462.77539 A 31.636112 41.260154 0 0 1 270.42188 458.86133 A 31.636112 41.260154 0 0 1 271.71484 455.09766 A 31.636112 41.260154 0 0 1 273.28711 451.51953 A 31.636112 41.260154 0 0 1 275.12695 448.16406 A 31.636112 41.260154 0 0 1 277.21484 445.06641 A 31.636112 41.260154 0 0 1 279.52734 442.25391 A 31.636112 41.260154 0 0 1 282.04492 439.75781 A 31.636112 41.260154 0 0 1 284.74219 437.60352 A 31.636112 41.260154 0 0 1 287.58789 435.80859 A 31.636112 41.260154 0 0 1 290.55859 434.39453 A 31.636112 41.260154 0 0 1 293.62305 433.375 A 31.636112 41.260154 0 0 1 296.75 432.75781 A 31.636112 41.260154 0 0 1 299.9082 432.55273 A 31.636112 41.260154 0 0 1 302.14648 432.65625 A 31.636112 41.260154 0 0 1 305.28516 433.15234 A 31.636112 41.260154 0 0 1 308.37109 434.05664 A 31.636112 41.260154 0 0 1 311.37109 435.35547 A 31.636112 41.260154 0 0 1 314.25781 437.04102 A 31.636112 41.260154 0 0 1 317.00195 439.09375 A 31.636112 41.260154 0 0 1 319.57422 441.49219 A 31.636112 41.260154 0 0 1 321.94922 444.21484 A 31.636112 41.260154 0 0 1 324.10547 447.23242 A 31.636112 41.260154 0 0 1 326.01953 450.51562 A 31.636112 41.260154 0 0 1 327.67188 454.03125 A 31.636112 41.260154 0 0 1 329.0332 457.70703 A 30.13302 37.846073 0 0 0 299.41602 426.67969 z "
       id="path38-7"
       transform="scale(0.26458333)" />
    <path
       id="path110-3"
       style="fill:none;stroke:#000000;stroke-width:0.24037668px;stroke-linecap:butt;stroke-linejoin:miter;stroke-opacity:1"
       d="m 87.614696,148.82832 c -1.374207,-1.14985 -3.323313,1.76381 -3.323313,1.76381 m 3.25141,-4.69386 c -1.374207,1.14985 -3.263219,-1.70372 -3.263219,-1.70372 m 0.05542,6.33184 c -0.699328,0.5709 -1.59253,0.91331 -2.565704,0.91331 -2.242234,0 -4.059923,-1.81769 -4.059921,-4.05992 -2e-6,-2.24223 1.817687,-4.05992 4.059921,-4.05992 0.95788,0 1.838281,0.33172 2.532589,0.88657"
       inkscape:connector-curvature="0" />
    <ellipse
       style="fill:none;stroke:#000000;stroke-width:0.22386621"
       id="path24-5"
       cx="85.686615"
       cy="147.14198"
       rx="8.9530344"
       ry="9.3462362" />
    <path
       style="fill:none;stroke:#000000;stroke-width:0.26458332px;stroke-linecap:butt;stroke-linejoin:miter;stroke-opacity:1"
       d="m 79.393266,154.95537 c -1.077632,1.91301 -2.041945,3.78074 -2.897309,5.60161 m -4.695935,14.03469 c -0.453004,2.46469 -0.660784,4.79958 -0.640949,6.9983 m 14.708175,21.79818 c 0.7873,0.30305 1.600634,0.57518 2.438603,0.81587 6.185475,1.77668 14.453929,2.16471 22.583069,0.94429 m 19.70787,-7.16689 c 5.88902,-4.06246 9.84372,-9.78146 9.9068,-17.35057 0.0422,-5.06187 -0.43147,-9.66053 -1.33339,-13.74154"
       id="path161"
       inkscape:connector-curvature="0"
       sodipodi:nodetypes="cccccsccsc" />
    <path
       style="fill:#000000;fill-opacity:1;stroke:#000000;stroke-width:0.37795276;stroke-linejoin:round;stroke-miterlimit:0;stroke-dasharray:none;stroke-opacity:1"
       d="m 397.77432,507.40874 c -17.90513,-1.73389 -32.55933,-13.41604 -37.1991,-29.65468 -0.97211,-3.40229 -1.26969,-5.72396 -1.26656,-9.8817 0.004,-5.18235 0.23864,-6.49373 1.70556,-9.52829 3.1425,-6.50074 7.93313,-11.96274 14.07695,-16.04972 6.62902,-4.40975 13.89339,-6.7297 21.83244,-6.97242 5.34975,-0.16356 9.84966,0.47135 14.69582,2.07346 2.85821,0.94492 7.62381,3.23108 9.86263,4.73134 10.00123,6.70191 16.34628,16.81901 17.92213,28.57657 0.32631,2.43461 0.27275,7.67146 -0.10339,10.10988 -0.41922,2.71772 -1.28073,6.05085 -2.13679,8.26714 -0.5844,1.51296 -0.93898,2.11556 -1.93571,3.28968 -6.7759,7.98181 -16.38591,13.1841 -27.29758,14.77727 -2.32507,0.33948 -7.87532,0.48237 -10.1564,0.26147 z"
       id="path4777"
       inkscape:connector-curvature="0"
       transform="scale(0.26458333)" />
    <path
       style="fill:#000000;fill-opacity:1;stroke:#000000;stroke-width:0.56692914;stroke-linejoin:round;stroke-miterlimit:0;stroke-dasharray:none;stroke-opacity:1"
       d="m 296.30384,501.79892 c -11.61674,-1.59764 -21.52793,-11.70868 -25.14943,-25.65655 -0.93999,-3.6203 -1.40689,-7.15366 -1.4085,-10.65924 -9.1e-4,-1.97344 0.0625,-2.62458 0.38361,-3.9402 3.29875,-13.51469 11.63847,-23.81945 22.11361,-27.32413 2.76534,-0.92521 4.38308,-1.18084 7.52564,-1.18919 2.33771,-0.006 3.14836,0.055 4.60654,0.34805 9.0738,1.82336 16.94456,8.46792 21.78793,18.39356 1.63948,3.35982 2.46095,5.67845 2.70819,7.64399 0.26875,2.13648 0.26988,8.25211 0.002,10.40215 -0.86176,6.91481 -3.07852,13.22435 -6.45096,18.36135 -1.68328,2.56402 -2.81221,3.92698 -5.02605,6.06792 -2.37426,2.29608 -4.2819,3.65526 -7.06782,5.03575 -3.82255,1.89417 -6.2883,2.51732 -10.32334,2.60891 -1.43029,0.0325 -3.0959,-0.009 -3.70134,-0.0924 z"
       id="path4787"
       inkscape:connector-curvature="0"
       transform="scale(0.26458333)" />
    <path
       id="path4811-3"
       style="fill:none;fill-opacity:1;stroke:#000000;stroke-width:0.26458332;stroke-linejoin:round;stroke-miterlimit:4;stroke-dasharray:none;stroke-opacity:1"
       d="m 90.185494,189.33612 a 2.5020304,2.5020304 0 0 1 -2.50203,2.50203 2.5020304,2.5020304 0 0 1 -2.50203,-2.50203 2.5020304,2.5020304 0 0 1 2.50203,-2.50203 2.5020304,2.5020304 0 0 1 2.50203,2.50203 z m -7.339289,-4.33685 a 4.1700501,4.1700501 0 0 1 -4.17005,4.17005 4.1700501,4.1700501 0 0 1 -4.17005,-4.17005 4.1700501,4.1700501 0 0 1 4.17005,-4.17005 4.1700501,4.1700501 0 0 1 4.17005,4.17005 z m -13.344156,5.75467 a 2.5854311,2.5854311 0 0 1 -2.585431,2.58543 2.5854311,2.5854311 0 0 1 -2.585431,-2.58543 2.5854311,2.5854311 0 0 1 2.585431,-2.58543 2.5854311,2.5854311 0 0 1 2.585431,2.58543 z m 6.155008,-2.86523 c -0.73246,1.35835 -2.16833,2.28143 -3.81979,2.28143 -2.39518,0 -4.33685,-1.94168 -4.33685,-4.33686 0,-2.39518 1.94168,-4.33685 4.33685,-4.33685 1.29332,0 2.45442,0.56613 3.24899,1.46409 m 13.63851,8.63649 c 0.4039,0.81379 0.69062,1.69325 0.83923,2.62506 0.88688,5.561 -3.48127,10.88038 -9.75652,11.88118 -6.27526,1.00079 -12.08133,-2.69598 -12.96821,-8.25699 -0.24813,-1.55585 -0.0849,-3.09277 0.41631,-4.5215 m 2.0751,-3.4782 c 0.0875,-0.0979 0.17683,-0.19455 0.26809,-0.2898 m 12.96689,-3.12629 c 1.11022,0.37047 2.13966,0.89575 3.05099,1.5521" />
    <path
       id="path4811-8"
       transform="scale(-1,1)"
       style="fill:none;fill-opacity:1;stroke:#000000;stroke-width:0.26458332;stroke-linejoin:round;stroke-miterlimit:4;stroke-dasharray:none;stroke-opacity:1"
       d="m -109.50642,189.65927 c 0,1.38183 -1.1202,2.50203 -2.50203,2.50203 -1.38183,0 -2.50203,-1.1202 -2.50203,-2.50203 0,-1.38183 1.1202,-2.50203 2.50203,-2.50203 1.38183,0 2.50203,1.1202 2.50203,2.50203 z m -4.98343,-2.45215 c 0,2.30305 -1.867,4.17005 -4.17005,4.17005 -2.30305,0 -4.17005,-1.867 -4.17005,-4.17005 0,-2.30305 1.867,-4.17005 4.17005,-4.17005 2.30305,0 4.17005,1.867 4.17005,4.17005 z m -13.34415,5.75466 c 0,1.42789 -1.15754,2.58543 -2.58543,2.58543 -1.42789,0 -2.58543,-1.15754 -2.58543,-2.58543 0,-1.42789 1.15754,-2.58543 2.58543,-2.58543 1.42789,0 2.58543,1.15754 2.58543,2.58543 z m 6.1553,-2.86578 c -0.73237,1.35866 -2.1684,2.28198 -3.82009,2.28198 -2.39518,0 -4.33685,-1.94167 -4.33685,-4.33685 0,-2.39518 1.94167,-4.33685 4.33685,-4.33685 1.27469,0 2.42093,0.54993 3.21442,1.42548 m 7.57975,3.53073 c 0.1232,0.0419 0.24539,0.0857 0.36651,0.13143 m 4.06656,2.65621 c 1.29847,1.35978 2.19291,3.0594 2.4995,4.98181 0.88689,5.561 -3.48126,10.88038 -9.75651,11.88118 -3.06881,0.48941 -6.02541,-0.1446 -8.34935,-1.57069 m -4.07646,-4.72378 c -0.24972,-0.62243 -0.43328,-1.27835 -0.54239,-1.96249 -0.24849,-1.55809 -0.0845,-3.09721 0.41848,-4.5277 m 2.05961,-3.45707 c 0.0991,-0.11139 0.20067,-0.22104 0.30466,-0.32894"
       inkscape:connector-curvature="0"
       sodipodi:nodetypes="ssssssssssssssscssscccccccccccc" />
    <path
       style="fill:none;stroke:#000000;stroke-width:0.32420024;stroke-linecap:butt;stroke-linejoin:miter;stroke-miterlimit:4;stroke-dasharray:none;stroke-opacity:1"
       d="m 118.94346,110.05386 c 10.54382,-20.409916 1.11557,-14.26458 0.12113,-21.002659 -0.99442,-6.738088 1.92981,-9.333484 7.47632,-5.365482 5.54653,3.968001 -2.45838,-6.153188 -1.33329,-11.835317 1.12512,-5.682135 32.14803,7.501907 1.38381,41.741318"
       id="path30-9"
       inkscape:connector-curvature="0"
       sodipodi:nodetypes="csssc" />
    <path
       style="fill:none;stroke:#000000;stroke-width:0.26458332px;stroke-linecap:butt;stroke-linejoin:miter;stroke-opacity:1"
       d="m 127.70663,113.58483 c 8.72978,-10.25973 14.66962,-10.34973 17.00956,-7.8298 2.33994,2.51994 0.17999,17.72954 -14.84961,20.96945"
       id="path4969"
       inkscape:connector-curvature="0" />
    <path
       style="fill:none;stroke:#000000;stroke-width:0.2244918px;stroke-linecap:butt;stroke-linejoin:miter;stroke-opacity:1"
       d="m 69.547863,107.71989 c -5.984629,-6.03928 -10.079314,-5.87635 -11.815493,-3.97006 -1.802937,1.97959 -0.426655,13.09987 9.551028,17.07338"
       id="path4969-7"
       inkscape:connector-curvature="0"
       sodipodi:nodetypes="csc" />
    <path
       id="path919-6"
       style="fill:none;fill-opacity:1;stroke:#000000;stroke-width:0.26458332;stroke-linejoin:round;stroke-miterlimit:4;stroke-dasharray:none;stroke-opacity:1"
       d="m 77.5381,176.07202 c 0.01699,0.11761 0.02578,0.23787 0.02578,0.36018 -10e-7,1.37924 -1.118094,2.49733 -2.497331,2.49733 -1.379238,0 -2.497331,-1.11809 -2.497332,-2.49733 0,-0.43866 0.113101,-0.85091 0.311732,-1.20917 m 13.218752,-5.44743 c 0.09104,-0.0101 0.183544,-0.0152 0.277259,-0.0152 1.379238,0 2.497331,1.11809 2.497332,2.49733 -10e-7,1.37924 -1.118094,2.49733 -2.497332,2.49733 -1.020405,0 -1.897871,-0.61199 -2.28538,-1.48895 m -1.393999,1.18658 c 0.263963,0.39601 0.417815,0.87171 0.417815,1.38333 -10e-7,1.37924 -1.118094,2.49733 -2.497331,2.49733 -1.32545,0 -2.409727,-1.03259 -2.492281,-2.33721 m -3.502639,-15.22407 c 0.594828,-0.14471 1.214419,-0.23912 1.852088,-0.27753 0.214965,-0.0129 0.431991,-0.0195 0.650812,-0.0195 5.041325,0 9.128126,3.49451 9.128125,7.80521 v -3e-5 c 10e-7,4.3107 -4.0868,7.80521 -9.128125,7.80521 -5.041325,0 -9.128124,-3.49451 -9.128125,-7.80521"
       inkscape:connector-curvature="0"
       sodipodi:nodetypes="csssccscsccssccssscsc" />
    <path
       style="fill:none;fill-opacity:1;stroke:#000000;stroke-width:0.28835985;stroke-linejoin:round;stroke-miterlimit:4;stroke-dasharray:none;stroke-opacity:1"
       d="m 117.09649,178.62333 c -0.48094,0.0633 -0.97298,0.096 -1.47357,0.096 -5.36033,0 -9.73974,-3.75717 -10.02726,-8.48838"
       id="path951"
       inkscape:connector-curvature="0"
       sodipodi:nodetypes="ssc" />
    <path
       style="fill:none;stroke:#000000;stroke-width:0.26458332px;stroke-linecap:butt;stroke-linejoin:miter;stroke-opacity:1"
       d="m 124.82127,142.33144 c 7.23439,-1.03845 20.69956,27.13939 10.90998,30.84356 -6.18941,2.34194 -12.9924,5.12641 -18.69695,5.45345"
       id="path953"
       inkscape:connector-curvature="0"
       sodipodi:nodetypes="csc" />
    <path
       style="fill:none;stroke:#000000;stroke-width:0.26458332px;stroke-linecap:butt;stroke-linejoin:miter;stroke-opacity:1"
       d="m 105.59543,170.27754 c -0.11586,-10.28295 17.43582,-9.96205 21.66915,-8.47962"
       id="path955"
       inkscape:connector-curvature="0"
       sodipodi:nodetypes="cc" />
    <path
       style="fill:none;stroke:#000000;stroke-width:0.26458332px;stroke-linecap:butt;stroke-linejoin:miter;stroke-opacity:1"
       d="m 121.69462,145.00952 c -4.68709,4.15684 -0.25278,12.39703 1.5993,16.10119"
       id="path957"
       inkscape:connector-curvature="0"
       sodipodi:nodetypes="cc" />
    <path
       style="fill:none;fill-opacity:1;stroke:#000000;stroke-width:0.26458332;stroke-linejoin:round;stroke-miterlimit:4;stroke-dasharray:none;stroke-opacity:1"
       d="m 106.46715,173.436 c -0.45718,0.40332 -1.04989,0.64675 -1.6975,0.64675 -1.44657,0 -2.61924,-1.21456 -2.61924,-2.71279 0,-1.49823 1.17268,-2.71278 2.61924,-2.71278 0.3319,0 0.64939,0.0639 0.94159,0.18057"
       id="path960"
       inkscape:connector-curvature="0"
       sodipodi:nodetypes="ccscc" />
    <path
       style="fill:none;fill-opacity:1;stroke:#000000;stroke-width:0.26458332;stroke-linejoin:round;stroke-miterlimit:4;stroke-dasharray:none;stroke-opacity:1"
       d="m 110.26523,177.31938 c -0.33096,1.10543 -1.32603,1.9083 -2.50215,1.9083 -1.44657,0 -2.61924,-1.21456 -2.61924,-2.71279 0,-1.14396 0.68366,-2.12253 1.6509,-2.52136"
       id="path960-7"
       inkscape:connector-curvature="0"
       sodipodi:nodetypes="ccsc" />
    <path
       style="fill:none;fill-opacity:1;stroke:#000000;stroke-width:0.26458332;stroke-linejoin:round;stroke-miterlimit:4;stroke-dasharray:none;stroke-opacity:1"
       d="m 116.35742,178.68871 c 0.008,0.085 0.0117,0.17121 0.0117,0.25834 0,1.49823 -1.17267,2.71279 -2.61924,2.71279 -1.44657,0 -2.61924,-1.21456 -2.61924,-2.71279 0,-0.3761 0.0739,-0.73432 0.20748,-1.05995"
       id="path960-5"
       inkscape:connector-curvature="0"
       sodipodi:nodetypes="cscsc" />
    <path
       style="fill:none;stroke:#000000;stroke-width:0.26458332px;stroke-linecap:butt;stroke-linejoin:miter;stroke-opacity:1"
       d="m 67.975188,168.6125 c 0.151257,-12.43338 5.868797,-16.60809 9.166214,-16.94085"
       id="path983"
       inkscape:connector-curvature="0" />
    <path
       style="fill:none;stroke:#000000;stroke-width:0.26458332px;stroke-linecap:butt;stroke-linejoin:miter;stroke-opacity:1"
       d="m 130.2308,132.62854 c 4.11528,-2.68018 7.61295,-3.66963 9.33735,-2.88581 4.11595,1.87088 24.50861,11.78658 25.25696,16.4638 0.74836,4.67722 -7.67063,1.12253 -8.79316,7.10937 -1.12254,5.98684 -7.48355,2.24506 -10.28988,7.29646 -0.5435,0.97831 -1.2063,1.96363 -1.97209,2.91791"
       id="path1007"
       inkscape:connector-curvature="0"
       sodipodi:nodetypes="ccccsc" />
    <path
       style="fill:none;stroke:#000000;stroke-width:0.26458332px;stroke-linecap:butt;stroke-linejoin:miter;stroke-opacity:1"
       d="m 138.18505,160.36454 c 51.5064,27.79372 23.77645,55.88534 -15.82906,45.52327 -1.50749,-0.39441 -0.85737,-2.37008 0.72487,-2.56563 7.8308,-0.96783 26.08805,-5.49738 20.41615,-15.58197"
       id="path1009"
       inkscape:connector-curvature="0"
       sodipodi:nodetypes="cssc" />
    <path
       style="fill:none;stroke:#000000;stroke-width:0.26458332px;stroke-linecap:butt;stroke-linejoin:miter;stroke-opacity:1"
       d="m 136.86231,191.96229 c 3.79257,0.0824 7.13852,1.61456 5.07733,4.58266"
       id="path1011"
       inkscape:connector-curvature="0"
       sodipodi:nodetypes="cc" />
  </g>
</svg>
